<mxfile host="app.diagrams.net" modified="2020-08-25T17:43:15.226Z" agent="5.0 (Windows NT 10.0; Win64; x64) AppleWebKit/537.36 (KHTML, like Gecko) Chrome/84.0.4147.135 Safari/537.36 Edg/84.0.522.63" etag="pgM4_qLagFqt59EjlsXI" version="13.6.5" type="github">
  <diagram id="R2lEEEUBdFMjLlhIrx00" name="Page-1">
    <mxGraphModel dx="1492" dy="2575" grid="1" gridSize="10" guides="1" tooltips="1" connect="1" arrows="1" fold="1" page="1" pageScale="1" pageWidth="850" pageHeight="1100" math="0" shadow="0" extFonts="Permanent Marker^https://fonts.googleapis.com/css?family=Permanent+Marker">
      <root>
        <mxCell id="0" />
        <mxCell id="1" parent="0" />
        <mxCell id="Ek08AW0A27vevWCZWwHT-21" value="" style="edgeStyle=entityRelationEdgeStyle;fontSize=12;html=1;endArrow=ERzeroToMany;endFill=1;" edge="1" parent="1">
          <mxGeometry width="100" height="100" relative="1" as="geometry">
            <mxPoint x="300" y="-30" as="sourcePoint" />
            <mxPoint x="250" y="-139" as="targetPoint" />
          </mxGeometry>
        </mxCell>
        <mxCell id="Ek08AW0A27vevWCZWwHT-22" value="Student profile" style="whiteSpace=wrap;html=1;align=center;" vertex="1" parent="1">
          <mxGeometry x="170" y="-1040" width="130" height="60" as="geometry" />
        </mxCell>
        <mxCell id="Ek08AW0A27vevWCZWwHT-27" value="ID_ST" style="ellipse;whiteSpace=wrap;html=1;align=center;fontStyle=4;" vertex="1" parent="1">
          <mxGeometry x="70" y="-1100" width="100" height="40" as="geometry" />
        </mxCell>
        <mxCell id="Ek08AW0A27vevWCZWwHT-37" value="" style="endArrow=none;html=1;entryX=0.18;entryY=0;entryDx=0;entryDy=0;entryPerimeter=0;exitX=1;exitY=1;exitDx=0;exitDy=0;" edge="1" parent="1" source="Ek08AW0A27vevWCZWwHT-27" target="Ek08AW0A27vevWCZWwHT-22">
          <mxGeometry width="50" height="50" relative="1" as="geometry">
            <mxPoint x="150" y="-1040" as="sourcePoint" />
            <mxPoint x="200" y="-1090" as="targetPoint" />
          </mxGeometry>
        </mxCell>
        <mxCell id="Ek08AW0A27vevWCZWwHT-39" value="ST_Name" style="ellipse;whiteSpace=wrap;html=1;align=center;" vertex="1" parent="1">
          <mxGeometry x="130" y="-1150" width="100" height="40" as="geometry" />
        </mxCell>
        <mxCell id="Ek08AW0A27vevWCZWwHT-42" value="" style="endArrow=none;html=1;entryX=0.74;entryY=0.925;entryDx=0;entryDy=0;entryPerimeter=0;exitX=0.346;exitY=0;exitDx=0;exitDy=0;exitPerimeter=0;" edge="1" parent="1" source="Ek08AW0A27vevWCZWwHT-22" target="Ek08AW0A27vevWCZWwHT-39">
          <mxGeometry width="50" height="50" relative="1" as="geometry">
            <mxPoint x="240" y="-1040" as="sourcePoint" />
            <mxPoint x="290" y="-1090" as="targetPoint" />
            <Array as="points" />
          </mxGeometry>
        </mxCell>
        <mxCell id="Ek08AW0A27vevWCZWwHT-44" value="DOB" style="ellipse;whiteSpace=wrap;html=1;align=center;" vertex="1" parent="1">
          <mxGeometry x="230" y="-1150" width="100" height="40" as="geometry" />
        </mxCell>
        <mxCell id="Ek08AW0A27vevWCZWwHT-46" value="" style="endArrow=none;html=1;entryX=0.5;entryY=1;entryDx=0;entryDy=0;exitX=0.5;exitY=0;exitDx=0;exitDy=0;" edge="1" parent="1" source="Ek08AW0A27vevWCZWwHT-22" target="Ek08AW0A27vevWCZWwHT-44">
          <mxGeometry width="50" height="50" relative="1" as="geometry">
            <mxPoint x="242" y="-1040" as="sourcePoint" />
            <mxPoint x="280" y="-1120" as="targetPoint" />
          </mxGeometry>
        </mxCell>
        <mxCell id="Ek08AW0A27vevWCZWwHT-47" value="Address" style="ellipse;whiteSpace=wrap;html=1;align=center;" vertex="1" parent="1">
          <mxGeometry x="290" y="-1110" width="100" height="40" as="geometry" />
        </mxCell>
        <mxCell id="Ek08AW0A27vevWCZWwHT-48" value="" style="endArrow=none;html=1;entryX=0.34;entryY=1.05;entryDx=0;entryDy=0;entryPerimeter=0;exitX=0.75;exitY=0;exitDx=0;exitDy=0;" edge="1" parent="1" source="Ek08AW0A27vevWCZWwHT-22" target="Ek08AW0A27vevWCZWwHT-47">
          <mxGeometry width="50" height="50" relative="1" as="geometry">
            <mxPoint x="280" y="-1060" as="sourcePoint" />
            <mxPoint x="330" y="-1110" as="targetPoint" />
          </mxGeometry>
        </mxCell>
        <mxCell id="Ek08AW0A27vevWCZWwHT-50" value="Study" style="shape=rhombus;perimeter=rhombusPerimeter;whiteSpace=wrap;html=1;align=center;" vertex="1" parent="1">
          <mxGeometry x="430" y="-1040" width="120" height="60" as="geometry" />
        </mxCell>
        <mxCell id="Ek08AW0A27vevWCZWwHT-51" value="Course" style="whiteSpace=wrap;html=1;align=center;" vertex="1" parent="1">
          <mxGeometry x="650" y="-1040" width="130" height="50" as="geometry" />
        </mxCell>
        <mxCell id="Ek08AW0A27vevWCZWwHT-53" value="ID_Course" style="ellipse;whiteSpace=wrap;html=1;align=center;fontStyle=4;" vertex="1" parent="1">
          <mxGeometry x="560" y="-1130" width="100" height="40" as="geometry" />
        </mxCell>
        <mxCell id="Ek08AW0A27vevWCZWwHT-54" value="" style="endArrow=none;html=1;exitX=0.192;exitY=0;exitDx=0;exitDy=0;exitPerimeter=0;entryX=0.5;entryY=1;entryDx=0;entryDy=0;" edge="1" parent="1" source="Ek08AW0A27vevWCZWwHT-51" target="Ek08AW0A27vevWCZWwHT-53">
          <mxGeometry width="50" height="50" relative="1" as="geometry">
            <mxPoint x="610" y="-1050" as="sourcePoint" />
            <mxPoint x="660" y="-1100" as="targetPoint" />
          </mxGeometry>
        </mxCell>
        <mxCell id="Ek08AW0A27vevWCZWwHT-55" value="Course_Name" style="ellipse;whiteSpace=wrap;html=1;align=center;" vertex="1" parent="1">
          <mxGeometry x="740" y="-1130" width="100" height="40" as="geometry" />
        </mxCell>
        <mxCell id="Ek08AW0A27vevWCZWwHT-57" value="" style="endArrow=none;html=1;entryX=0.41;entryY=1.1;entryDx=0;entryDy=0;entryPerimeter=0;exitX=0.5;exitY=0;exitDx=0;exitDy=0;" edge="1" parent="1" source="Ek08AW0A27vevWCZWwHT-51" target="Ek08AW0A27vevWCZWwHT-55">
          <mxGeometry width="50" height="50" relative="1" as="geometry">
            <mxPoint x="715" y="-1050" as="sourcePoint" />
            <mxPoint x="740" y="-1100" as="targetPoint" />
          </mxGeometry>
        </mxCell>
        <mxCell id="Ek08AW0A27vevWCZWwHT-58" value="" style="endArrow=none;html=1;rounded=0;entryX=0;entryY=0.5;entryDx=0;entryDy=0;" edge="1" parent="1" source="Ek08AW0A27vevWCZWwHT-59" target="Ek08AW0A27vevWCZWwHT-50">
          <mxGeometry relative="1" as="geometry">
            <mxPoint x="300" y="-1010.5" as="sourcePoint" />
            <mxPoint x="460" y="-1010.5" as="targetPoint" />
          </mxGeometry>
        </mxCell>
        <mxCell id="Ek08AW0A27vevWCZWwHT-59" value="(1,1)" style="text;html=1;align=center;verticalAlign=middle;resizable=0;points=[];autosize=1;" vertex="1" parent="1">
          <mxGeometry x="350" y="-1020" width="40" height="20" as="geometry" />
        </mxCell>
        <mxCell id="Ek08AW0A27vevWCZWwHT-60" value="" style="endArrow=none;html=1;rounded=0;entryX=0;entryY=0.5;entryDx=0;entryDy=0;" edge="1" parent="1" source="Ek08AW0A27vevWCZWwHT-22" target="Ek08AW0A27vevWCZWwHT-59">
          <mxGeometry relative="1" as="geometry">
            <mxPoint x="300" y="-1010.5" as="sourcePoint" />
            <mxPoint x="450" y="-1010" as="targetPoint" />
          </mxGeometry>
        </mxCell>
        <mxCell id="Ek08AW0A27vevWCZWwHT-63" value="" style="endArrow=none;html=1;rounded=0;exitX=1;exitY=0.5;exitDx=0;exitDy=0;" edge="1" parent="1" source="Ek08AW0A27vevWCZWwHT-66" target="Ek08AW0A27vevWCZWwHT-51">
          <mxGeometry relative="1" as="geometry">
            <mxPoint x="500" y="-960" as="sourcePoint" />
            <mxPoint x="646" y="-1010" as="targetPoint" />
          </mxGeometry>
        </mxCell>
        <mxCell id="Ek08AW0A27vevWCZWwHT-66" value="(0,N)" style="text;html=1;align=center;verticalAlign=middle;resizable=0;points=[];autosize=1;" vertex="1" parent="1">
          <mxGeometry x="580" y="-1020" width="40" height="20" as="geometry" />
        </mxCell>
        <mxCell id="Ek08AW0A27vevWCZWwHT-67" value="" style="endArrow=none;html=1;rounded=0;exitX=1;exitY=0.5;exitDx=0;exitDy=0;" edge="1" parent="1" source="Ek08AW0A27vevWCZWwHT-50">
          <mxGeometry relative="1" as="geometry">
            <mxPoint x="550" y="-1010" as="sourcePoint" />
            <mxPoint x="580" y="-1007" as="targetPoint" />
          </mxGeometry>
        </mxCell>
        <mxCell id="Ek08AW0A27vevWCZWwHT-69" value="Has" style="shape=rhombus;perimeter=rhombusPerimeter;whiteSpace=wrap;html=1;align=center;" vertex="1" parent="1">
          <mxGeometry x="650" y="-910" width="120" height="60" as="geometry" />
        </mxCell>
        <mxCell id="Ek08AW0A27vevWCZWwHT-70" value="Subject" style="whiteSpace=wrap;html=1;align=center;" vertex="1" parent="1">
          <mxGeometry x="645" y="-735" width="130" height="40" as="geometry" />
        </mxCell>
        <mxCell id="Ek08AW0A27vevWCZWwHT-71" value="ID_Subject" style="ellipse;whiteSpace=wrap;html=1;align=center;fontStyle=4;" vertex="1" parent="1">
          <mxGeometry x="840" y="-780" width="100" height="40" as="geometry" />
        </mxCell>
        <mxCell id="Ek08AW0A27vevWCZWwHT-72" value="" style="endArrow=none;html=1;exitX=1;exitY=0.5;exitDx=0;exitDy=0;" edge="1" parent="1" source="Ek08AW0A27vevWCZWwHT-70">
          <mxGeometry width="50" height="50" relative="1" as="geometry">
            <mxPoint x="775" y="-720" as="sourcePoint" />
            <mxPoint x="849" y="-745" as="targetPoint" />
          </mxGeometry>
        </mxCell>
        <mxCell id="Ek08AW0A27vevWCZWwHT-73" value="S_Name" style="ellipse;whiteSpace=wrap;html=1;align=center;" vertex="1" parent="1">
          <mxGeometry x="840" y="-720" width="100" height="40" as="geometry" />
        </mxCell>
        <mxCell id="Ek08AW0A27vevWCZWwHT-74" value="" style="endArrow=none;html=1;entryX=0;entryY=0.5;entryDx=0;entryDy=0;exitX=1;exitY=0.5;exitDx=0;exitDy=0;" edge="1" parent="1" source="Ek08AW0A27vevWCZWwHT-70" target="Ek08AW0A27vevWCZWwHT-73">
          <mxGeometry width="50" height="50" relative="1" as="geometry">
            <mxPoint x="770" y="-710" as="sourcePoint" />
            <mxPoint x="820" y="-760" as="targetPoint" />
          </mxGeometry>
        </mxCell>
        <mxCell id="Ek08AW0A27vevWCZWwHT-75" value="Lesson_Num" style="ellipse;whiteSpace=wrap;html=1;align=center;" vertex="1" parent="1">
          <mxGeometry x="850" y="-660" width="100" height="40" as="geometry" />
        </mxCell>
        <mxCell id="Ek08AW0A27vevWCZWwHT-76" value="" style="endArrow=none;html=1;entryX=0;entryY=0.5;entryDx=0;entryDy=0;exitX=1;exitY=0.75;exitDx=0;exitDy=0;" edge="1" parent="1" source="Ek08AW0A27vevWCZWwHT-70" target="Ek08AW0A27vevWCZWwHT-75">
          <mxGeometry width="50" height="50" relative="1" as="geometry">
            <mxPoint x="770" y="-630" as="sourcePoint" />
            <mxPoint x="820" y="-680" as="targetPoint" />
          </mxGeometry>
        </mxCell>
        <mxCell id="Ek08AW0A27vevWCZWwHT-77" value="Số tín" style="ellipse;whiteSpace=wrap;html=1;align=center;" vertex="1" parent="1">
          <mxGeometry x="850" y="-600" width="100" height="40" as="geometry" />
        </mxCell>
        <mxCell id="Ek08AW0A27vevWCZWwHT-78" value="" style="endArrow=none;html=1;exitX=1;exitY=1;exitDx=0;exitDy=0;" edge="1" parent="1" source="Ek08AW0A27vevWCZWwHT-70" target="Ek08AW0A27vevWCZWwHT-77">
          <mxGeometry width="50" height="50" relative="1" as="geometry">
            <mxPoint x="730" y="-590" as="sourcePoint" />
            <mxPoint x="780" y="-640" as="targetPoint" />
          </mxGeometry>
        </mxCell>
        <mxCell id="Ek08AW0A27vevWCZWwHT-79" value="" style="endArrow=none;html=1;rounded=0;entryX=0.5;entryY=0;entryDx=0;entryDy=0;" edge="1" parent="1" source="Ek08AW0A27vevWCZWwHT-81" target="Ek08AW0A27vevWCZWwHT-70">
          <mxGeometry relative="1" as="geometry">
            <mxPoint x="660" y="-920" as="sourcePoint" />
            <mxPoint x="820" y="-920" as="targetPoint" />
          </mxGeometry>
        </mxCell>
        <mxCell id="Ek08AW0A27vevWCZWwHT-81" value="(,0,n)" style="text;html=1;align=center;verticalAlign=middle;resizable=0;points=[];autosize=1;" vertex="1" parent="1">
          <mxGeometry x="690" y="-810" width="40" height="20" as="geometry" />
        </mxCell>
        <mxCell id="Ek08AW0A27vevWCZWwHT-82" value="" style="endArrow=none;html=1;rounded=0;entryX=0.5;entryY=0;entryDx=0;entryDy=0;" edge="1" parent="1" source="Ek08AW0A27vevWCZWwHT-69" target="Ek08AW0A27vevWCZWwHT-81">
          <mxGeometry relative="1" as="geometry">
            <mxPoint x="710" y="-850" as="sourcePoint" />
            <mxPoint x="710" y="-730" as="targetPoint" />
          </mxGeometry>
        </mxCell>
        <mxCell id="Ek08AW0A27vevWCZWwHT-84" value="" style="endArrow=none;html=1;entryX=0.454;entryY=1.06;entryDx=0;entryDy=0;entryPerimeter=0;" edge="1" parent="1" source="Ek08AW0A27vevWCZWwHT-85" target="Ek08AW0A27vevWCZWwHT-51">
          <mxGeometry width="50" height="50" relative="1" as="geometry">
            <mxPoint x="685" y="-920" as="sourcePoint" />
            <mxPoint x="735" y="-970" as="targetPoint" />
          </mxGeometry>
        </mxCell>
        <mxCell id="Ek08AW0A27vevWCZWwHT-85" value="(1,n)" style="text;html=1;align=center;verticalAlign=middle;resizable=0;points=[];autosize=1;" vertex="1" parent="1">
          <mxGeometry x="690" y="-960" width="40" height="20" as="geometry" />
        </mxCell>
        <mxCell id="Ek08AW0A27vevWCZWwHT-86" value="" style="endArrow=none;html=1;entryX=0.5;entryY=1;entryDx=0;entryDy=0;" edge="1" parent="1" source="Ek08AW0A27vevWCZWwHT-69" target="Ek08AW0A27vevWCZWwHT-85">
          <mxGeometry width="50" height="50" relative="1" as="geometry">
            <mxPoint x="711.3333333333333" y="-909.3333333333333" as="sourcePoint" />
            <mxPoint x="715" y="-990" as="targetPoint" />
          </mxGeometry>
        </mxCell>
        <mxCell id="Ek08AW0A27vevWCZWwHT-88" value="Subject_Class" style="whiteSpace=wrap;html=1;align=center;" vertex="1" parent="1">
          <mxGeometry x="160" y="-735" width="120" height="50" as="geometry" />
        </mxCell>
        <mxCell id="Ek08AW0A27vevWCZWwHT-89" value="ID_SCL" style="ellipse;whiteSpace=wrap;html=1;align=center;fontStyle=4;" vertex="1" parent="1">
          <mxGeometry x="-30" y="-820" width="100" height="40" as="geometry" />
        </mxCell>
        <mxCell id="Ek08AW0A27vevWCZWwHT-90" value="Max_Student" style="ellipse;whiteSpace=wrap;html=1;align=center;" vertex="1" parent="1">
          <mxGeometry x="-40" y="-770" width="100" height="40" as="geometry" />
        </mxCell>
        <mxCell id="Ek08AW0A27vevWCZWwHT-91" value="Start_Date" style="ellipse;whiteSpace=wrap;html=1;align=center;" vertex="1" parent="1">
          <mxGeometry x="-50" y="-725" width="100" height="40" as="geometry" />
        </mxCell>
        <mxCell id="Ek08AW0A27vevWCZWwHT-92" value="End_Date" style="ellipse;whiteSpace=wrap;html=1;align=center;" vertex="1" parent="1">
          <mxGeometry x="-30" y="-670" width="100" height="40" as="geometry" />
        </mxCell>
        <mxCell id="Ek08AW0A27vevWCZWwHT-94" value="" style="endArrow=none;html=1;entryX=0;entryY=0.25;entryDx=0;entryDy=0;" edge="1" parent="1" source="Ek08AW0A27vevWCZWwHT-90" target="Ek08AW0A27vevWCZWwHT-88">
          <mxGeometry width="50" height="50" relative="1" as="geometry">
            <mxPoint x="380" y="-550" as="sourcePoint" />
            <mxPoint x="430" y="-600" as="targetPoint" />
          </mxGeometry>
        </mxCell>
        <mxCell id="Ek08AW0A27vevWCZWwHT-95" value="" style="endArrow=none;html=1;entryX=0;entryY=0.5;entryDx=0;entryDy=0;exitX=1;exitY=0.5;exitDx=0;exitDy=0;" edge="1" parent="1" source="Ek08AW0A27vevWCZWwHT-91" target="Ek08AW0A27vevWCZWwHT-88">
          <mxGeometry width="50" height="50" relative="1" as="geometry">
            <mxPoint x="380" y="-550" as="sourcePoint" />
            <mxPoint x="430" y="-600" as="targetPoint" />
          </mxGeometry>
        </mxCell>
        <mxCell id="Ek08AW0A27vevWCZWwHT-96" value="" style="endArrow=none;html=1;entryX=0;entryY=0.75;entryDx=0;entryDy=0;exitX=0.97;exitY=0.35;exitDx=0;exitDy=0;exitPerimeter=0;" edge="1" parent="1" source="Ek08AW0A27vevWCZWwHT-92" target="Ek08AW0A27vevWCZWwHT-88">
          <mxGeometry width="50" height="50" relative="1" as="geometry">
            <mxPoint x="380" y="-550" as="sourcePoint" />
            <mxPoint x="430" y="-600" as="targetPoint" />
          </mxGeometry>
        </mxCell>
        <mxCell id="Ek08AW0A27vevWCZWwHT-97" value="" style="endArrow=none;html=1;" edge="1" parent="1" source="Ek08AW0A27vevWCZWwHT-88" target="Ek08AW0A27vevWCZWwHT-89">
          <mxGeometry width="50" height="50" relative="1" as="geometry">
            <mxPoint x="380" y="-670" as="sourcePoint" />
            <mxPoint x="430" y="-720" as="targetPoint" />
          </mxGeometry>
        </mxCell>
        <mxCell id="Ek08AW0A27vevWCZWwHT-98" value="Relationship" style="shape=rhombus;perimeter=rhombusPerimeter;whiteSpace=wrap;html=1;align=center;" vertex="1" parent="1">
          <mxGeometry x="410" y="-745" width="120" height="60" as="geometry" />
        </mxCell>
        <mxCell id="Ek08AW0A27vevWCZWwHT-104" value="" style="endArrow=none;html=1;rounded=0;exitX=1;exitY=0.5;exitDx=0;exitDy=0;" edge="1" parent="1" source="Ek08AW0A27vevWCZWwHT-106" target="Ek08AW0A27vevWCZWwHT-98">
          <mxGeometry relative="1" as="geometry">
            <mxPoint x="330" y="-690" as="sourcePoint" />
            <mxPoint x="490" y="-690" as="targetPoint" />
          </mxGeometry>
        </mxCell>
        <mxCell id="Ek08AW0A27vevWCZWwHT-105" value="" style="endArrow=none;html=1;rounded=0;entryX=0;entryY=0.5;entryDx=0;entryDy=0;exitX=0.933;exitY=0.583;exitDx=0;exitDy=0;exitPerimeter=0;" edge="1" parent="1" source="Ek08AW0A27vevWCZWwHT-108" target="Ek08AW0A27vevWCZWwHT-70">
          <mxGeometry relative="1" as="geometry">
            <mxPoint x="480" y="-710.5" as="sourcePoint" />
            <mxPoint x="640" y="-710.5" as="targetPoint" />
          </mxGeometry>
        </mxCell>
        <mxCell id="Ek08AW0A27vevWCZWwHT-106" value="(1,1)" style="text;html=1;align=center;verticalAlign=middle;resizable=0;points=[];autosize=1;" vertex="1" parent="1">
          <mxGeometry x="320" y="-720" width="40" height="20" as="geometry" />
        </mxCell>
        <mxCell id="Ek08AW0A27vevWCZWwHT-107" value="" style="endArrow=none;html=1;rounded=0;exitX=1;exitY=0.5;exitDx=0;exitDy=0;" edge="1" parent="1" source="Ek08AW0A27vevWCZWwHT-88" target="Ek08AW0A27vevWCZWwHT-106">
          <mxGeometry relative="1" as="geometry">
            <mxPoint x="280" y="-710" as="sourcePoint" />
            <mxPoint x="413" y="-713.5" as="targetPoint" />
          </mxGeometry>
        </mxCell>
        <mxCell id="Ek08AW0A27vevWCZWwHT-108" value="(1,n)" style="text;html=1;align=center;verticalAlign=middle;resizable=0;points=[];autosize=1;" vertex="1" parent="1">
          <mxGeometry x="560" y="-725" width="40" height="20" as="geometry" />
        </mxCell>
        <mxCell id="Ek08AW0A27vevWCZWwHT-109" value="" style="endArrow=none;html=1;rounded=0;entryX=0;entryY=0.5;entryDx=0;entryDy=0;exitX=1;exitY=0.5;exitDx=0;exitDy=0;" edge="1" parent="1" source="Ek08AW0A27vevWCZWwHT-98" target="Ek08AW0A27vevWCZWwHT-108">
          <mxGeometry relative="1" as="geometry">
            <mxPoint x="540" y="-710" as="sourcePoint" />
            <mxPoint x="645" y="-710" as="targetPoint" />
          </mxGeometry>
        </mxCell>
        <mxCell id="Ek08AW0A27vevWCZWwHT-110" value="Teacher" style="whiteSpace=wrap;html=1;align=center;" vertex="1" parent="1">
          <mxGeometry x="160" y="-480" width="120" height="50" as="geometry" />
        </mxCell>
        <mxCell id="Ek08AW0A27vevWCZWwHT-111" value="&lt;u&gt;ID_T&lt;/u&gt;" style="ellipse;whiteSpace=wrap;html=1;align=center;" vertex="1" parent="1">
          <mxGeometry x="-60" y="-520" width="100" height="40" as="geometry" />
        </mxCell>
        <mxCell id="Ek08AW0A27vevWCZWwHT-112" value="TC_Name" style="ellipse;whiteSpace=wrap;html=1;align=center;" vertex="1" parent="1">
          <mxGeometry x="-70" y="-475" width="100" height="40" as="geometry" />
        </mxCell>
        <mxCell id="Ek08AW0A27vevWCZWwHT-113" value="Rank" style="ellipse;whiteSpace=wrap;html=1;align=center;" vertex="1" parent="1">
          <mxGeometry x="-60" y="-420" width="100" height="40" as="geometry" />
        </mxCell>
        <mxCell id="Ek08AW0A27vevWCZWwHT-114" value="Degree" style="ellipse;whiteSpace=wrap;html=1;align=center;" vertex="1" parent="1">
          <mxGeometry x="-40" y="-370" width="100" height="40" as="geometry" />
        </mxCell>
        <mxCell id="Ek08AW0A27vevWCZWwHT-115" value="" style="endArrow=none;html=1;exitX=0.97;exitY=0.75;exitDx=0;exitDy=0;entryX=0;entryY=0.25;entryDx=0;entryDy=0;exitPerimeter=0;" edge="1" parent="1" source="Ek08AW0A27vevWCZWwHT-111" target="Ek08AW0A27vevWCZWwHT-110">
          <mxGeometry width="50" height="50" relative="1" as="geometry">
            <mxPoint x="380" y="-600" as="sourcePoint" />
            <mxPoint x="430" y="-650" as="targetPoint" />
          </mxGeometry>
        </mxCell>
        <mxCell id="Ek08AW0A27vevWCZWwHT-116" value="" style="endArrow=none;html=1;entryX=0;entryY=0.5;entryDx=0;entryDy=0;" edge="1" parent="1" source="Ek08AW0A27vevWCZWwHT-112" target="Ek08AW0A27vevWCZWwHT-110">
          <mxGeometry width="50" height="50" relative="1" as="geometry">
            <mxPoint x="380" y="-490" as="sourcePoint" />
            <mxPoint x="170" y="-450" as="targetPoint" />
          </mxGeometry>
        </mxCell>
        <mxCell id="Ek08AW0A27vevWCZWwHT-117" value="" style="endArrow=none;html=1;entryX=0;entryY=0.75;entryDx=0;entryDy=0;" edge="1" parent="1" source="Ek08AW0A27vevWCZWwHT-113" target="Ek08AW0A27vevWCZWwHT-110">
          <mxGeometry width="50" height="50" relative="1" as="geometry">
            <mxPoint x="380" y="-490" as="sourcePoint" />
            <mxPoint x="430" y="-540" as="targetPoint" />
          </mxGeometry>
        </mxCell>
        <mxCell id="Ek08AW0A27vevWCZWwHT-118" value="" style="endArrow=none;html=1;entryX=0;entryY=1;entryDx=0;entryDy=0;" edge="1" parent="1" source="Ek08AW0A27vevWCZWwHT-114" target="Ek08AW0A27vevWCZWwHT-110">
          <mxGeometry width="50" height="50" relative="1" as="geometry">
            <mxPoint x="380" y="-490" as="sourcePoint" />
            <mxPoint x="170" y="-430" as="targetPoint" />
          </mxGeometry>
        </mxCell>
        <mxCell id="Ek08AW0A27vevWCZWwHT-119" value="Teach" style="shape=rhombus;perimeter=rhombusPerimeter;whiteSpace=wrap;html=1;align=center;" vertex="1" parent="1">
          <mxGeometry x="150" y="-610" width="120" height="60" as="geometry" />
        </mxCell>
        <mxCell id="Ek08AW0A27vevWCZWwHT-121" value="" style="endArrow=none;html=1;entryX=0.5;entryY=1;entryDx=0;entryDy=0;" edge="1" parent="1" target="Ek08AW0A27vevWCZWwHT-119">
          <mxGeometry width="50" height="50" relative="1" as="geometry">
            <mxPoint x="210" y="-528" as="sourcePoint" />
            <mxPoint x="430" y="-650" as="targetPoint" />
          </mxGeometry>
        </mxCell>
        <mxCell id="Ek08AW0A27vevWCZWwHT-122" value="" style="endArrow=none;html=1;entryX=0.417;entryY=0.98;entryDx=0;entryDy=0;entryPerimeter=0;" edge="1" parent="1" source="Ek08AW0A27vevWCZWwHT-125" target="Ek08AW0A27vevWCZWwHT-88">
          <mxGeometry width="50" height="50" relative="1" as="geometry">
            <mxPoint x="380" y="-600" as="sourcePoint" />
            <mxPoint x="430" y="-650" as="targetPoint" />
          </mxGeometry>
        </mxCell>
        <mxCell id="Ek08AW0A27vevWCZWwHT-123" value="(0,n)" style="text;html=1;align=center;verticalAlign=middle;resizable=0;points=[];autosize=1;" vertex="1" parent="1">
          <mxGeometry x="190" y="-530" width="40" height="20" as="geometry" />
        </mxCell>
        <mxCell id="Ek08AW0A27vevWCZWwHT-124" value="" style="endArrow=none;html=1;exitX=0.417;exitY=0;exitDx=0;exitDy=0;exitPerimeter=0;entryX=0.5;entryY=1;entryDx=0;entryDy=0;" edge="1" parent="1" source="Ek08AW0A27vevWCZWwHT-110" target="Ek08AW0A27vevWCZWwHT-123">
          <mxGeometry width="50" height="50" relative="1" as="geometry">
            <mxPoint x="210.03999999999996" y="-480" as="sourcePoint" />
            <mxPoint x="210" y="-550" as="targetPoint" />
          </mxGeometry>
        </mxCell>
        <mxCell id="Ek08AW0A27vevWCZWwHT-125" value="(1,1)" style="text;html=1;align=center;verticalAlign=middle;resizable=0;points=[];autosize=1;" vertex="1" parent="1">
          <mxGeometry x="190" y="-660" width="40" height="20" as="geometry" />
        </mxCell>
        <mxCell id="Ek08AW0A27vevWCZWwHT-126" value="" style="endArrow=none;html=1;entryX=0.417;entryY=0.98;entryDx=0;entryDy=0;entryPerimeter=0;" edge="1" parent="1" source="Ek08AW0A27vevWCZWwHT-119" target="Ek08AW0A27vevWCZWwHT-125">
          <mxGeometry width="50" height="50" relative="1" as="geometry">
            <mxPoint x="210.01131861912836" y="-609.9943406904358" as="sourcePoint" />
            <mxPoint x="210.03999999999996" y="-686" as="targetPoint" />
          </mxGeometry>
        </mxCell>
        <mxCell id="Ek08AW0A27vevWCZWwHT-127" value="register" style="shape=rhombus;perimeter=rhombusPerimeter;whiteSpace=wrap;html=1;align=center;" vertex="1" parent="1">
          <mxGeometry x="160" y="-900" width="120" height="60" as="geometry" />
        </mxCell>
        <mxCell id="Ek08AW0A27vevWCZWwHT-128" value="" style="endArrow=none;html=1;rounded=0;entryX=0.5;entryY=0;entryDx=0;entryDy=0;" edge="1" parent="1" source="Ek08AW0A27vevWCZWwHT-130" target="Ek08AW0A27vevWCZWwHT-127">
          <mxGeometry relative="1" as="geometry">
            <mxPoint x="340" y="-890" as="sourcePoint" />
            <mxPoint x="500" y="-890" as="targetPoint" />
          </mxGeometry>
        </mxCell>
        <mxCell id="Ek08AW0A27vevWCZWwHT-129" value="" style="endArrow=none;html=1;rounded=0;exitX=0.5;exitY=1;exitDx=0;exitDy=0;entryX=0.5;entryY=0;entryDx=0;entryDy=0;" edge="1" parent="1" source="Ek08AW0A27vevWCZWwHT-132" target="Ek08AW0A27vevWCZWwHT-88">
          <mxGeometry relative="1" as="geometry">
            <mxPoint x="340" y="-890" as="sourcePoint" />
            <mxPoint x="500" y="-890" as="targetPoint" />
          </mxGeometry>
        </mxCell>
        <mxCell id="Ek08AW0A27vevWCZWwHT-130" value="(1,n)" style="text;html=1;align=center;verticalAlign=middle;resizable=0;points=[];autosize=1;" vertex="1" parent="1">
          <mxGeometry x="200" y="-950" width="40" height="20" as="geometry" />
        </mxCell>
        <mxCell id="Ek08AW0A27vevWCZWwHT-131" value="" style="endArrow=none;html=1;rounded=0;entryX=0.5;entryY=0;entryDx=0;entryDy=0;exitX=0.369;exitY=1.028;exitDx=0;exitDy=0;exitPerimeter=0;" edge="1" parent="1" source="Ek08AW0A27vevWCZWwHT-22" target="Ek08AW0A27vevWCZWwHT-130">
          <mxGeometry relative="1" as="geometry">
            <mxPoint x="223.6363636363635" y="-980" as="sourcePoint" />
            <mxPoint x="220" y="-900" as="targetPoint" />
          </mxGeometry>
        </mxCell>
        <mxCell id="Ek08AW0A27vevWCZWwHT-132" value="(1,n)" style="text;html=1;align=center;verticalAlign=middle;resizable=0;points=[];autosize=1;" vertex="1" parent="1">
          <mxGeometry x="200" y="-800" width="40" height="20" as="geometry" />
        </mxCell>
        <mxCell id="Ek08AW0A27vevWCZWwHT-133" value="" style="endArrow=none;html=1;rounded=0;exitX=0.5;exitY=1;exitDx=0;exitDy=0;entryX=0.5;entryY=0;entryDx=0;entryDy=0;" edge="1" parent="1" source="Ek08AW0A27vevWCZWwHT-127" target="Ek08AW0A27vevWCZWwHT-132">
          <mxGeometry relative="1" as="geometry">
            <mxPoint x="220" y="-840" as="sourcePoint" />
            <mxPoint x="220" y="-735" as="targetPoint" />
          </mxGeometry>
        </mxCell>
        <mxCell id="Ek08AW0A27vevWCZWwHT-134" value="" style="endArrow=none;html=1;rounded=0;exitX=0.692;exitY=1;exitDx=0;exitDy=0;exitPerimeter=0;" edge="1" parent="1" source="Ek08AW0A27vevWCZWwHT-156" target="Ek08AW0A27vevWCZWwHT-135">
          <mxGeometry relative="1" as="geometry">
            <mxPoint x="260" y="-920" as="sourcePoint" />
            <mxPoint x="380" y="-830" as="targetPoint" />
            <Array as="points" />
          </mxGeometry>
        </mxCell>
        <mxCell id="Ek08AW0A27vevWCZWwHT-135" value="Has" style="shape=rhombus;perimeter=rhombusPerimeter;whiteSpace=wrap;html=1;align=center;" vertex="1" parent="1">
          <mxGeometry x="320" y="-830" width="120" height="60" as="geometry" />
        </mxCell>
        <mxCell id="Ek08AW0A27vevWCZWwHT-138" value="" style="endArrow=none;html=1;rounded=0;exitX=0.5;exitY=1;exitDx=0;exitDy=0;" edge="1" parent="1" source="Ek08AW0A27vevWCZWwHT-161" target="Ek08AW0A27vevWCZWwHT-139">
          <mxGeometry relative="1" as="geometry">
            <mxPoint x="340" y="-780" as="sourcePoint" />
            <mxPoint x="620" y="-450" as="targetPoint" />
            <Array as="points">
              <mxPoint x="390" y="-450" />
            </Array>
          </mxGeometry>
        </mxCell>
        <mxCell id="Ek08AW0A27vevWCZWwHT-139" value="Point_of_subject" style="whiteSpace=wrap;html=1;align=center;" vertex="1" parent="1">
          <mxGeometry x="660" y="-470" width="100" height="40" as="geometry" />
        </mxCell>
        <mxCell id="Ek08AW0A27vevWCZWwHT-140" value="S_name" style="ellipse;whiteSpace=wrap;html=1;align=center;" vertex="1" parent="1">
          <mxGeometry x="810" y="-530" width="100" height="40" as="geometry" />
        </mxCell>
        <mxCell id="Ek08AW0A27vevWCZWwHT-141" value="lesson_num" style="ellipse;whiteSpace=wrap;html=1;align=center;" vertex="1" parent="1">
          <mxGeometry x="800" y="-475" width="100" height="40" as="geometry" />
        </mxCell>
        <mxCell id="Ek08AW0A27vevWCZWwHT-142" value="test_day" style="ellipse;whiteSpace=wrap;html=1;align=center;" vertex="1" parent="1">
          <mxGeometry x="790" y="-410" width="100" height="40" as="geometry" />
        </mxCell>
        <mxCell id="Ek08AW0A27vevWCZWwHT-143" value="TC_name" style="ellipse;whiteSpace=wrap;html=1;align=center;" vertex="1" parent="1">
          <mxGeometry x="790" y="-350" width="100" height="40" as="geometry" />
        </mxCell>
        <mxCell id="Ek08AW0A27vevWCZWwHT-145" value="ID_ST" style="ellipse;whiteSpace=wrap;html=1;align=center;" vertex="1" parent="1">
          <mxGeometry x="690" y="-310" width="100" height="40" as="geometry" />
        </mxCell>
        <mxCell id="Ek08AW0A27vevWCZWwHT-146" value="ST_Name" style="ellipse;whiteSpace=wrap;html=1;align=center;" vertex="1" parent="1">
          <mxGeometry x="590" y="-320" width="100" height="40" as="geometry" />
        </mxCell>
        <mxCell id="Ek08AW0A27vevWCZWwHT-147" value="point" style="ellipse;whiteSpace=wrap;html=1;align=center;" vertex="1" parent="1">
          <mxGeometry x="700" y="-560" width="100" height="40" as="geometry" />
        </mxCell>
        <mxCell id="Ek08AW0A27vevWCZWwHT-148" value="" style="endArrow=none;html=1;entryX=0.43;entryY=1;entryDx=0;entryDy=0;entryPerimeter=0;exitX=0.555;exitY=-0.042;exitDx=0;exitDy=0;exitPerimeter=0;" edge="1" parent="1" source="Ek08AW0A27vevWCZWwHT-139" target="Ek08AW0A27vevWCZWwHT-147">
          <mxGeometry width="50" height="50" relative="1" as="geometry">
            <mxPoint x="730" y="-350" as="sourcePoint" />
            <mxPoint x="780" y="-400" as="targetPoint" />
          </mxGeometry>
        </mxCell>
        <mxCell id="Ek08AW0A27vevWCZWwHT-149" value="" style="endArrow=none;html=1;entryX=0;entryY=0.5;entryDx=0;entryDy=0;exitX=0.75;exitY=0;exitDx=0;exitDy=0;" edge="1" parent="1" source="Ek08AW0A27vevWCZWwHT-139" target="Ek08AW0A27vevWCZWwHT-140">
          <mxGeometry width="50" height="50" relative="1" as="geometry">
            <mxPoint x="730" y="-350" as="sourcePoint" />
            <mxPoint x="780" y="-400" as="targetPoint" />
          </mxGeometry>
        </mxCell>
        <mxCell id="Ek08AW0A27vevWCZWwHT-150" value="" style="endArrow=none;html=1;entryX=0;entryY=0.5;entryDx=0;entryDy=0;exitX=1;exitY=0.5;exitDx=0;exitDy=0;" edge="1" parent="1" source="Ek08AW0A27vevWCZWwHT-139" target="Ek08AW0A27vevWCZWwHT-141">
          <mxGeometry width="50" height="50" relative="1" as="geometry">
            <mxPoint x="730" y="-350" as="sourcePoint" />
            <mxPoint x="780" y="-400" as="targetPoint" />
          </mxGeometry>
        </mxCell>
        <mxCell id="Ek08AW0A27vevWCZWwHT-151" value="" style="endArrow=none;html=1;entryX=0;entryY=0;entryDx=0;entryDy=0;exitX=1;exitY=0.75;exitDx=0;exitDy=0;" edge="1" parent="1" source="Ek08AW0A27vevWCZWwHT-139" target="Ek08AW0A27vevWCZWwHT-142">
          <mxGeometry width="50" height="50" relative="1" as="geometry">
            <mxPoint x="730" y="-350" as="sourcePoint" />
            <mxPoint x="780" y="-400" as="targetPoint" />
          </mxGeometry>
        </mxCell>
        <mxCell id="Ek08AW0A27vevWCZWwHT-152" value="" style="endArrow=none;html=1;entryX=0.047;entryY=0.167;entryDx=0;entryDy=0;entryPerimeter=0;exitX=0.75;exitY=1;exitDx=0;exitDy=0;" edge="1" parent="1" source="Ek08AW0A27vevWCZWwHT-139" target="Ek08AW0A27vevWCZWwHT-143">
          <mxGeometry width="50" height="50" relative="1" as="geometry">
            <mxPoint x="730" y="-350" as="sourcePoint" />
            <mxPoint x="780" y="-400" as="targetPoint" />
          </mxGeometry>
        </mxCell>
        <mxCell id="Ek08AW0A27vevWCZWwHT-153" value="" style="endArrow=none;html=1;entryX=0.647;entryY=0.021;entryDx=0;entryDy=0;entryPerimeter=0;" edge="1" parent="1" source="Ek08AW0A27vevWCZWwHT-139" target="Ek08AW0A27vevWCZWwHT-145">
          <mxGeometry width="50" height="50" relative="1" as="geometry">
            <mxPoint x="730" y="-350" as="sourcePoint" />
            <mxPoint x="780" y="-400" as="targetPoint" />
          </mxGeometry>
        </mxCell>
        <mxCell id="Ek08AW0A27vevWCZWwHT-155" value="" style="endArrow=none;html=1;entryX=0.405;entryY=1.063;entryDx=0;entryDy=0;entryPerimeter=0;exitX=0.7;exitY=0;exitDx=0;exitDy=0;exitPerimeter=0;" edge="1" parent="1" source="Ek08AW0A27vevWCZWwHT-146" target="Ek08AW0A27vevWCZWwHT-139">
          <mxGeometry width="50" height="50" relative="1" as="geometry">
            <mxPoint x="730" y="-350" as="sourcePoint" />
            <mxPoint x="780" y="-400" as="targetPoint" />
          </mxGeometry>
        </mxCell>
        <mxCell id="Ek08AW0A27vevWCZWwHT-156" value="(1,n)" style="text;html=1;align=center;verticalAlign=middle;resizable=0;points=[];autosize=1;" vertex="1" parent="1">
          <mxGeometry x="350" y="-900" width="40" height="20" as="geometry" />
        </mxCell>
        <mxCell id="Ek08AW0A27vevWCZWwHT-160" value="" style="endArrow=none;html=1;rounded=0;exitX=0.692;exitY=1;exitDx=0;exitDy=0;exitPerimeter=0;" edge="1" parent="1" source="Ek08AW0A27vevWCZWwHT-22" target="Ek08AW0A27vevWCZWwHT-156">
          <mxGeometry relative="1" as="geometry">
            <mxPoint x="259.96000000000004" y="-980" as="sourcePoint" />
            <mxPoint x="380" y="-830" as="targetPoint" />
            <Array as="points">
              <mxPoint x="260" y="-920" />
              <mxPoint x="373" y="-920" />
            </Array>
          </mxGeometry>
        </mxCell>
        <mxCell id="Ek08AW0A27vevWCZWwHT-161" value="(1,n)" style="text;html=1;align=center;verticalAlign=middle;resizable=0;points=[];autosize=1;" vertex="1" parent="1">
          <mxGeometry x="370" y="-470" width="40" height="20" as="geometry" />
        </mxCell>
        <mxCell id="Ek08AW0A27vevWCZWwHT-163" value="" style="endArrow=none;html=1;rounded=0;exitX=0.5;exitY=1;exitDx=0;exitDy=0;" edge="1" parent="1" source="Ek08AW0A27vevWCZWwHT-135" target="Ek08AW0A27vevWCZWwHT-161">
          <mxGeometry relative="1" as="geometry">
            <mxPoint x="380" y="-770" as="sourcePoint" />
            <mxPoint x="660" y="-450" as="targetPoint" />
            <Array as="points" />
          </mxGeometry>
        </mxCell>
        <mxCell id="Ek08AW0A27vevWCZWwHT-166" value="has" style="shape=rhombus;perimeter=rhombusPerimeter;whiteSpace=wrap;html=1;align=center;" vertex="1" parent="1">
          <mxGeometry x="420" y="-670" width="120" height="60" as="geometry" />
        </mxCell>
        <mxCell id="Ek08AW0A27vevWCZWwHT-168" value="" style="endArrow=none;html=1;rounded=0;exitX=0.75;exitY=1;exitDx=0;exitDy=0;entryX=-0.044;entryY=0.5;entryDx=0;entryDy=0;entryPerimeter=0;" edge="1" parent="1" source="Ek08AW0A27vevWCZWwHT-170" target="Ek08AW0A27vevWCZWwHT-166">
          <mxGeometry relative="1" as="geometry">
            <mxPoint x="420" y="-560" as="sourcePoint" />
            <mxPoint x="580" y="-560" as="targetPoint" />
            <Array as="points">
              <mxPoint x="250" y="-640" />
            </Array>
          </mxGeometry>
        </mxCell>
        <mxCell id="Ek08AW0A27vevWCZWwHT-169" value="" style="endArrow=none;html=1;rounded=0;exitX=0.5;exitY=1;exitDx=0;exitDy=0;entryX=0;entryY=0.25;entryDx=0;entryDy=0;" edge="1" parent="1" source="Ek08AW0A27vevWCZWwHT-174" target="Ek08AW0A27vevWCZWwHT-139">
          <mxGeometry relative="1" as="geometry">
            <mxPoint x="420" y="-560" as="sourcePoint" />
            <mxPoint x="490" y="-470" as="targetPoint" />
            <Array as="points">
              <mxPoint x="480" y="-460" />
            </Array>
          </mxGeometry>
        </mxCell>
        <mxCell id="Ek08AW0A27vevWCZWwHT-170" value="(1,1)" style="text;html=1;align=center;verticalAlign=middle;resizable=0;points=[];autosize=1;" vertex="1" parent="1">
          <mxGeometry x="230" y="-660" width="40" height="20" as="geometry" />
        </mxCell>
        <mxCell id="Ek08AW0A27vevWCZWwHT-173" value="" style="endArrow=none;html=1;rounded=0;exitX=0.75;exitY=1;exitDx=0;exitDy=0;" edge="1" parent="1" source="Ek08AW0A27vevWCZWwHT-88" target="Ek08AW0A27vevWCZWwHT-170">
          <mxGeometry relative="1" as="geometry">
            <mxPoint x="250.00000000000023" y="-685" as="sourcePoint" />
            <mxPoint x="414.72000000000025" y="-640" as="targetPoint" />
            <Array as="points" />
          </mxGeometry>
        </mxCell>
        <mxCell id="Ek08AW0A27vevWCZWwHT-174" value="(1,1)" style="text;html=1;align=center;verticalAlign=middle;resizable=0;points=[];autosize=1;" vertex="1" parent="1">
          <mxGeometry x="460" y="-480" width="40" height="20" as="geometry" />
        </mxCell>
        <mxCell id="Ek08AW0A27vevWCZWwHT-176" value="" style="endArrow=none;html=1;rounded=0;exitX=0.5;exitY=1;exitDx=0;exitDy=0;" edge="1" parent="1" source="Ek08AW0A27vevWCZWwHT-166" target="Ek08AW0A27vevWCZWwHT-174">
          <mxGeometry relative="1" as="geometry">
            <mxPoint x="480" y="-610" as="sourcePoint" />
            <mxPoint x="660" y="-460" as="targetPoint" />
            <Array as="points" />
          </mxGeometry>
        </mxCell>
      </root>
    </mxGraphModel>
  </diagram>
</mxfile>
